<?xml version="1.0" encoding="UTF-8"?>
<svg id="a" data-name="Objects" xmlns="http://www.w3.org/2000/svg" xmlns:xlink="http://www.w3.org/1999/xlink" viewBox="0 0 500 500">
  <defs>
    <style>
      .c {
        fill: url(#b);
      }
    </style>
    <linearGradient id="b" x1="350.84" y1="334.2" x2="61.53" y2="44.9" gradientUnits="userSpaceOnUse">
      <stop offset="0" stop-color="#7289da"/>
      <stop offset=".34" stop-color="#6f86db"/>
      <stop offset=".58" stop-color="#6580df"/>
      <stop offset=".8" stop-color="#5675e5"/>
      <stop offset=".99" stop-color="#3f65ee"/>
      <stop offset="1" stop-color="#3f65ef"/>
    </linearGradient>
  </defs>
  <path class="c" d="M300.99,385.57c12.17,14.83,10.02,36.72-4.81,48.89-2.73,2.24-5.79,4.06-9.08,5.38-28.96,12.06-61.41,12.72-90.83,1.85C118.09,413.76,14.04,287.44,1.61,205.36c-5.03-30.96,1.83-62.68,19.21-88.8,10.43-16.1,31.94-20.69,48.04-10.25,2.97,1.92,5.63,4.29,7.88,7.02l30.89,37.49c9.13,10.97,10.56,26.43,3.61,38.89-3.73,6.84-8.69,12.93-14.62,17.99-42.88,35.32,72.7,175.64,115.56,140.3,6.1-4.87,13.04-8.58,20.48-10.95,13.56-4.45,28.46-.08,37.48,10.99l30.85,37.55ZM175.91,152.14h-13.97v114.55h13.97v-114.55ZM223.41,107.44h-13.97v192.77h13.97V107.44ZM153.56,185.66h-13.97v33.53h13.97v-33.53ZM201.06,132.58h-13.97v150.87h13.97v-150.87ZM293.26,135.37h-13.97v134.1h13.97v-134.1ZM486.03,194.05v16.76h13.97v-16.76h-13.97ZM245.76,126.99h-13.97v150.87h13.97V126.99ZM268.11,85.09h-13.97v234.68h13.97V85.09ZM416.18,210.81h13.97v-16.76h-13.97v16.76ZM393.83,224.78h13.97v-47.5h-13.97v47.5ZM438.54,210.81h13.97v-16.76h-13.97v16.76ZM460.89,210.81h13.97v-16.76h-13.97v16.76ZM346.34,291.83h13.97V110.23h-13.97v181.6ZM323.99,171.69v61.46h13.97v-61.46h-13.97ZM301.64,252.72h13.97v-103.37h-13.97v103.37ZM368.69,244.33h13.97v-83.82h-13.97v83.82Z"/>
</svg>